<?xml version="1.0" encoding="utf-8"?>
<!-- Generator: Adobe Illustrator 16.0.4, SVG Export Plug-In . SVG Version: 6.00 Build 0)  -->
<!DOCTYPE svg PUBLIC "-//W3C//DTD SVG 1.1//EN" "http://www.w3.org/Graphics/SVG/1.1/DTD/svg11.dtd">
<svg version="1.1" xmlns="http://www.w3.org/2000/svg" xmlns:xlink="http://www.w3.org/1999/xlink" x="0px" y="0px"
	 width="144.567px" height="144.567px" viewBox="106.299 765.339 144.567 144.567"
	 enable-background="new 106.299 765.339 144.567 144.567" xml:space="preserve">
<g id="svg2" xmlns:dc="http://purl.org/dc/elements/1.1/" xmlns:cc="http://creativecommons.org/ns#" xmlns:rdf="http://www.w3.org/1999/02/22-rdf-syntax-ns#" xmlns:svg="http://www.w3.org/2000/svg" xmlns:sodipodi="http://sodipodi.sourceforge.net/DTD/sodipodi-0.dtd" xmlns:inkscape="http://www.inkscape.org/namespaces/inkscape" inkscape:export-ydpi="149.41" inkscape:export-xdpi="149.41" inkscape:export-filename="/home/bengt/Studium/1414/PIW (Praktikum Interaktionswerkstatt)/LightWatch/presentations/week7/img/Deckglas.png" sodipodi:docname="Deckglas.svg" inkscape:version="0.48.4 r9939">
	<g id="layer1" inkscape:label="Ebene 1" inkscape:groupmode="layer">
		<path fill="#888888" d="M178.57,765.328c-39.92,0.006-72.277,32.375-72.271,72.296c0,0.008,0,0.016,0,0.024
			c0.007,39.921,32.375,72.278,72.295,72.271c39.921-0.006,72.278-32.373,72.272-72.295c0-0.008,0-0.016,0-0.023
			C250.858,797.678,218.491,765.322,178.57,765.328z M226.771,837.624c0.005,26.614-21.566,48.191-48.181,48.196
			c-26.614,0.006-48.191-21.566-48.197-48.181c0-0.005,0-0.01,0-0.016c-0.004-26.614,21.567-48.193,48.181-48.198
			s48.191,21.568,48.196,48.183C226.771,837.613,226.771,837.619,226.771,837.624z"/>
		<g id="g3795">
			<rect id="rect2991" x="171.495" y="770.202" width="14.174" height="14.173"/>
			<rect id="rect3769" x="171.495" y="891.801" width="14.174" height="14.173"/>
			<rect id="rect3771" x="232.295" y="831.001" width="14.173" height="14.173"/>
			<rect id="rect3773" x="110.696" y="831.001" width="14.173" height="14.173"/>
			
				<rect id="rect3775" x="201.895" y="778.347" transform="matrix(-0.866 -0.5001 0.5001 -0.866 -2.8108 1570.1139)" width="14.174" height="14.173"/>
			
				<rect id="rect3777" x="141.096" y="883.656" transform="matrix(-0.866 -0.5 0.5 -0.866 -168.8232 1736.2532)" width="14.173" height="14.174"/>
			
				<rect id="rect3779" x="224.149" y="800.601" transform="matrix(-0.5 -0.866 0.866 -0.5 -352.6163 1411.7949)" width="14.175" height="14.173"/>
			
				<rect id="rect3781" x="118.842" y="861.402" transform="matrix(-0.5 -0.866 0.866 -0.5 -563.2472 1411.7808)" width="14.173" height="14.173"/>
			
				<rect id="rect3787" x="224.15" y="861.402" transform="matrix(0.5 -0.866 0.866 0.5 -636.5037 634.4603)" width="14.174" height="14.173"/>
			
				<rect id="rect3789" x="118.841" y="800.602" transform="matrix(0.5 -0.866 0.866 0.5 -636.5182 512.9106)" width="14.173" height="14.173"/>
			
				<rect id="rect3791" x="201.895" y="883.655" transform="matrix(0.866 -0.5001 0.5001 0.866 -417.4237 223.8759)" width="14.174" height="14.174"/>
			
				<rect id="rect3793" x="141.096" y="778.348" transform="matrix(0.866 -0.5 0.5 0.866 -372.8387 179.2972)" width="14.173" height="14.173"/>
		</g>
	</g>
</g>
<g id="Ebene_2">
	<circle fill="none" stroke="#000000" stroke-width="5.000000e-04" stroke-miterlimit="10" cx="178.583" cy="837.623" r="72.283"/>
</g>
</svg>
