<?xml version="1.0" encoding="UTF-8" standalone="no"?>
<!-- Created with Inkscape (http://www.inkscape.org/) -->

<svg
   xmlns:dc="http://purl.org/dc/elements/1.1/"
   xmlns:cc="http://creativecommons.org/ns#"
   xmlns:rdf="http://www.w3.org/1999/02/22-rdf-syntax-ns#"
   xmlns:svg="http://www.w3.org/2000/svg"
   xmlns="http://www.w3.org/2000/svg"
   xmlns:sodipodi="http://sodipodi.sourceforge.net/DTD/sodipodi-0.dtd"
   xmlns:inkscape="http://www.inkscape.org/namespaces/inkscape"
   width="210mm"
   height="297mm"
   id="svg2"
   version="1.1"
   inkscape:version="0.48.4 r9939"
   sodipodi:docname="Deckglas.svg"
   inkscape:export-filename="/home/bengt/Studium/1414/PIW (Praktikum Interaktionswerkstatt)/LightWatch/presentations/week7/img/Deckglas.png"
   inkscape:export-xdpi="149.41"
   inkscape:export-ydpi="149.41">
  <defs
     id="defs4" />
  <sodipodi:namedview
     id="base"
     pagecolor="#ffffff"
     bordercolor="#666666"
     borderopacity="1.0"
     inkscape:pageopacity="0.0"
     inkscape:pageshadow="2"
     inkscape:zoom="2.3195979"
     inkscape:cx="372.04724"
     inkscape:cy="169.91391"
     inkscape:document-units="px"
     inkscape:current-layer="layer1"
     showgrid="true"
     inkscape:window-width="1920"
     inkscape:window-height="1014"
     inkscape:window-x="0"
     inkscape:window-y="27"
     inkscape:window-maximized="1">
    <inkscape:grid
       type="xygrid"
       id="grid2989" />
  </sodipodi:namedview>
  <metadata
     id="metadata7">
    <rdf:RDF>
      <cc:Work
         rdf:about="">
        <dc:format>image/svg+xml</dc:format>
        <dc:type
           rdf:resource="http://purl.org/dc/dcmitype/StillImage" />
        <dc:title></dc:title>
      </cc:Work>
    </rdf:RDF>
  </metadata>
  <g
     inkscape:label="Ebene 1"
     inkscape:groupmode="layer"
     id="layer1">
    <path
       sodipodi:type="arc"
       style="fill:#333333;fill-opacity:1;fill-rule:evenodd;stroke:none"
       id="path2985"
       sodipodi:cx="330"
       sodipodi:cy="478.07648"
       sodipodi:rx="164.28572"
       sodipodi:ry="202.85715"
       d="m 494.28572,478.07648 a 164.28572,202.85715 0 1 1 -328.57144,0 164.28572,202.85715 0 1 1 328.57144,0 z"
       transform="matrix(0.54998286,0,0,0.44540866,15.1592,642.76924)" />
    <path
       transform="matrix(0.36665524,0,0,0.29693911,75.657314,713.74904)"
       d="m 494.28572,478.07648 a 164.28572,202.85715 0 1 1 -328.57144,0 164.28572,202.85715 0 1 1 328.57144,0 z"
       sodipodi:ry="202.85715"
       sodipodi:rx="164.28572"
       sodipodi:cy="478.07648"
       sodipodi:cx="330"
       id="path2987"
       style="fill:#000000;fill-opacity:1;fill-rule:evenodd;stroke:none"
       sodipodi:type="arc" />
    <g
       id="g3795"
       style="fill:#666666">
      <rect
         y="771.43134"
         x="187.79527"
         height="17.716536"
         width="17.716536"
         id="rect2991"
         style="fill:#666666;fill-opacity:1;fill-rule:evenodd;stroke:none" />
      <rect
         style="fill:#666666;fill-opacity:1;fill-rule:evenodd;stroke:none"
         id="rect3769"
         width="17.716536"
         height="17.716536"
         x="187.79527"
         y="923.43134" />
      <rect
         transform="matrix(0,1,-1,0,0,0)"
         style="fill:#666666;fill-opacity:1;fill-rule:evenodd;stroke:none"
         id="rect3771"
         width="17.716536"
         height="17.716536"
         x="847.43134"
         y="-281.51181" />
      <rect
         transform="matrix(0,1,-1,0,0,0)"
         y="-129.51181"
         x="847.43134"
         height="17.716536"
         width="17.716536"
         id="rect3773"
         style="fill:#666666;fill-opacity:1;fill-rule:evenodd;stroke:none" />
      <rect
         y="558.38348"
         x="589.59351"
         height="17.716536"
         width="17.716536"
         id="rect3775"
         style="fill:#666666;fill-opacity:1;fill-rule:evenodd;stroke:none"
         transform="matrix(0.8660254,0.5,-0.5,0.8660254,0,0)" />
      <rect
         style="fill:#666666;fill-opacity:1;fill-rule:evenodd;stroke:none"
         id="rect3777"
         width="17.716536"
         height="17.716536"
         x="589.59351"
         y="710.38348"
         transform="matrix(0.8660254,0.5,-0.5,0.8660254,0,0)" />
      <rect
         transform="matrix(0.5,0.8660254,-0.8660254,0.5,0,0)"
         style="fill:#666666;fill-opacity:1;fill-rule:evenodd;stroke:none"
         id="rect3779"
         width="17.716536"
         height="17.716536"
         x="831.03705"
         y="172.97954" />
      <rect
         transform="matrix(0.5,0.8660254,-0.8660254,0.5,0,0)"
         y="324.97955"
         x="831.03705"
         height="17.716536"
         width="17.716536"
         id="rect3781"
         style="fill:#666666;fill-opacity:1;fill-rule:evenodd;stroke:none" />
      <rect
         transform="matrix(-0.5,0.8660254,-0.8660254,-0.5,0,0)"
         style="fill:#666666;fill-opacity:1;fill-rule:evenodd;stroke:none"
         id="rect3787"
         width="17.716536"
         height="17.716536"
         x="634.38348"
         y="-683.31006" />
      <rect
         transform="matrix(-0.5,0.8660254,-0.8660254,-0.5,0,0)"
         y="-531.31006"
         x="634.38348"
         height="17.716536"
         width="17.716536"
         id="rect3789"
         style="fill:#666666;fill-opacity:1;fill-rule:evenodd;stroke:none" />
      <rect
         y="-924.7536"
         x="248.97957"
         height="17.716536"
         width="17.716536"
         id="rect3791"
         style="fill:#666666;fill-opacity:1;fill-rule:evenodd;stroke:none"
         transform="matrix(-0.8660254,0.5,-0.5,-0.8660254,0,0)" />
      <rect
         style="fill:#666666;fill-opacity:1;fill-rule:evenodd;stroke:none"
         id="rect3793"
         width="17.716536"
         height="17.716536"
         x="248.97957"
         y="-772.7536"
         transform="matrix(-0.8660254,0.5,-0.5,-0.8660254,0,0)" />
    </g>
  </g>
</svg>
